<svg width="108" height="28" viewBox="0 0 108 28" fill="none" xmlns="http://www.w3.org/2000/svg">
<path d="M10.4402 21.54C8.87425 21.63 7.51525 21.504 6.36325 21.162C5.21125 20.838 4.23925 20.361 3.44725 19.731C2.65525 19.101 2.00725 18.381 1.50325 17.571C1.01725 16.743 0.657246 15.888 0.423246 15.006C0.207246 14.124 0.0992461 13.251 0.0992461 12.387C0.0992461 11.127 0.315246 9.912 0.747246 8.742C1.19725 7.572 1.84525 6.528 2.69125 5.61C3.55525 4.674 4.61725 3.936 5.87725 3.396C7.13725 2.856 8.59525 2.586 10.2512 2.586C11.6912 2.586 12.9152 2.784 13.9232 3.18C14.9312 3.558 15.6692 3.909 16.1372 4.233L15.3272 7.905C15.0392 7.671 14.6612 7.401 14.1932 7.095C13.7252 6.771 13.1672 6.456 12.5192 6.15C11.8712 5.844 11.1242 5.601 10.2782 5.421C9.45025 5.241 8.51425 5.16 7.47025 5.178C6.89425 5.646 6.42625 6.231 6.06625 6.933C5.70625 7.617 5.43625 8.373 5.25625 9.201C5.07625 10.011 4.98625 10.839 4.98625 11.685C4.98625 12.837 5.17525 13.935 5.55325 14.979C5.93125 16.005 6.50725 16.851 7.28125 17.517C8.05525 18.183 9.02725 18.543 10.1972 18.597C10.7552 18.597 11.3492 18.561 11.9792 18.489C12.6092 18.399 13.2032 18.282 13.7612 18.138C14.3372 17.976 14.8232 17.832 15.2192 17.706L16.4342 19.164L10.4402 21.54ZM12.5192 15.222C11.9972 15.006 11.4662 14.772 10.9262 14.52C10.4042 14.268 9.91825 13.989 9.46825 13.683L9.63025 12.792H12.3572L12.5192 15.222ZM12.0332 19.272V12.792H16.4342V19.164L12.0332 19.272ZM14.6252 15.033L14.2202 12.792H18.4592L18.4862 14.061L14.6252 15.033ZM12.6542 9.147L11.4932 4.503L16.1372 4.233C16.1732 4.611 16.1642 5.088 16.1102 5.664C16.0742 6.222 16.0022 6.807 15.8942 7.419C15.8042 8.031 15.6872 8.607 15.5432 9.147H12.6542ZM20.6616 21V8.958L23.8746 7.554L25.3326 8.85V21H20.6616ZM18.6636 21L18.6096 20.055C19.1136 19.749 19.6626 19.488 20.2566 19.272C20.8686 19.056 21.4266 18.885 21.9306 18.759L21.6876 21H18.6636ZM22.9566 21L23.6316 18.219C24.1896 18.363 24.8106 18.561 25.4946 18.813C26.1786 19.047 26.7726 19.335 27.2766 19.677L27.2226 21H22.9566ZM18.6366 9.849L18.5016 8.553C19.2936 8.247 20.1486 8.013 21.0666 7.851C21.9846 7.671 22.9206 7.572 23.8746 7.554L23.8476 9.444L21.7956 10.443L18.6366 9.849ZM23.2266 6.123C22.6146 5.853 22.0296 5.502 21.4716 5.07C20.9136 4.62 20.4276 4.152 20.0136 3.666C20.3556 3 20.7516 2.397 21.2016 1.857C21.6516 1.299 22.1466 0.822 22.6866 0.425999C23.2986 0.731999 23.8656 1.137 24.3876 1.641C24.9096 2.127 25.3596 2.64 25.7376 3.18C25.4496 3.756 25.0896 4.305 24.6576 4.827C24.2256 5.331 23.7486 5.763 23.2266 6.123ZM33.62 27.669C32.954 27.669 32.288 27.597 31.622 27.453C30.974 27.309 30.362 27.075 29.786 26.751C29.228 26.427 28.76 25.995 28.382 25.455C28.004 24.933 27.788 24.285 27.734 23.511L31.946 19.758L34.457 19.623C33.809 19.983 33.251 20.334 32.783 20.676C32.333 21.018 31.973 21.351 31.703 21.675C31.451 22.017 31.325 22.332 31.325 22.62C31.325 23.16 31.622 23.556 32.216 23.808C32.81 24.078 33.521 24.213 34.349 24.213C34.907 24.213 35.474 24.15 36.05 24.024C36.644 23.898 37.175 23.709 37.643 23.457C38.129 23.223 38.507 22.926 38.777 22.566C38.057 22.278 37.175 22.017 36.131 21.783C35.087 21.549 33.962 21.351 32.756 21.189C31.55 21.045 30.326 20.955 29.084 20.919L28.517 18.921C28.967 18.471 29.426 18.048 29.894 17.652C30.362 17.256 30.848 16.887 31.352 16.545C31.874 16.203 32.396 15.906 32.918 15.654L34.619 16.113C34.205 16.365 33.809 16.635 33.431 16.923C33.053 17.211 32.72 17.499 32.432 17.787C33.188 17.787 33.971 17.832 34.781 17.922C35.591 17.994 36.401 18.102 37.211 18.246C38.021 18.39 38.804 18.552 39.56 18.732C40.316 18.894 41.018 19.083 41.666 19.299C42.008 20.073 42.116 20.856 41.99 21.648C41.882 22.44 41.594 23.196 41.126 23.916C40.658 24.636 40.046 25.275 39.29 25.833C38.534 26.409 37.67 26.859 36.698 27.183C35.744 27.507 34.718 27.669 33.62 27.669ZM34.457 16.788C33.107 16.788 31.964 16.581 31.028 16.167C30.11 15.735 29.408 15.168 28.922 14.466C28.436 13.746 28.193 12.99 28.193 12.198C28.193 11.352 28.445 10.569 28.949 9.849C29.471 9.129 30.209 8.544 31.163 8.094C32.135 7.626 33.278 7.392 34.592 7.392C35.834 7.392 36.932 7.599 37.886 8.013C38.84 8.427 39.587 8.994 40.127 9.714C40.667 10.434 40.937 11.235 40.937 12.117C40.937 12.981 40.667 13.773 40.127 14.493C39.605 15.195 38.858 15.753 37.886 16.167C36.932 16.581 35.789 16.788 34.457 16.788ZM35.51 14.736C35.816 14.538 36.041 14.223 36.185 13.791C36.329 13.341 36.401 12.873 36.401 12.387C36.401 11.973 36.329 11.568 36.185 11.172C36.041 10.776 35.834 10.434 35.564 10.146C35.312 9.84 34.997 9.642 34.619 9.552C34.259 9.444 33.854 9.48 33.404 9.66C33.188 9.858 33.017 10.2 32.891 10.686C32.765 11.154 32.702 11.622 32.702 12.09C32.702 12.666 32.801 13.188 32.999 13.656C33.215 14.124 33.53 14.466 33.944 14.682C34.376 14.898 34.898 14.916 35.51 14.736ZM38.21 11.253C38.102 10.659 38.075 10.056 38.129 9.444C38.183 8.832 38.354 8.265 38.642 7.743C38.93 7.203 39.353 6.762 39.911 6.42C40.469 6.078 41.18 5.889 42.044 5.853L42.8 9.687C41.234 9.471 39.911 9.822 38.831 10.74L38.21 11.253ZM47.5271 21.081L43.2341 8.715L47.9591 8.067L50.0381 14.871L50.7401 17.328H51.0371L52.7651 12.549L54.4931 13.602L53.9801 16.248L51.9821 20.865C51.5861 20.991 51.1091 21.081 50.5511 21.135C49.9931 21.207 49.4441 21.234 48.9041 21.216C48.3641 21.198 47.9051 21.153 47.5271 21.081ZM55.0601 21.081L50.5511 8.391L55.2491 8.175L57.2201 14.925L57.8141 17.328H58.0841L58.8131 8.067H63.8621L59.3801 20.865C58.9841 20.991 58.5161 21.081 57.9761 21.135C57.4361 21.207 56.9051 21.234 56.3831 21.216C55.8791 21.198 55.4381 21.153 55.0601 21.081ZM46.8521 12.225L42.3161 9.552L42.3431 8.067H47.9321L46.8521 12.225ZM62.5391 10.389L60.1901 8.067H64.3211L64.4021 9.39C64.1141 9.588 63.8171 9.768 63.5111 9.93C63.2051 10.092 62.8811 10.245 62.5391 10.389ZM70.8983 21.54C69.7103 21.54 68.5943 21.261 67.5503 20.703C66.5063 20.145 65.6513 19.335 64.9853 18.273C64.3373 17.211 64.0133 15.933 64.0133 14.439C64.0133 12.945 64.3283 11.685 64.9583 10.659C65.6063 9.633 66.4433 8.85 67.4693 8.31C68.5133 7.77 69.6203 7.5 70.7903 7.5C71.9603 7.5 73.0583 7.77 74.0843 8.31C75.1103 8.85 75.9383 9.651 76.5683 10.713C77.1983 11.757 77.5133 13.044 77.5133 14.574C77.5133 16.068 77.2073 17.337 76.5953 18.381C75.9833 19.407 75.1733 20.19 74.1653 20.73C73.1753 21.27 72.0863 21.54 70.8983 21.54ZM71.0333 19.11C71.2673 19.11 71.5193 19.065 71.7893 18.975C72.0413 18.777 72.2393 18.471 72.3833 18.057C72.5273 17.643 72.6263 17.157 72.6803 16.599C72.7523 16.041 72.7883 15.465 72.7883 14.871C72.7883 13.989 72.7163 13.197 72.5723 12.495C72.4283 11.775 72.1943 11.199 71.8703 10.767C71.5643 10.317 71.1413 10.092 70.6013 10.092C70.4033 10.092 70.2053 10.119 70.0073 10.173C69.8273 10.227 69.6743 10.299 69.5483 10.389C69.2783 10.767 69.0713 11.325 68.9273 12.063C68.8013 12.783 68.7383 13.593 68.7383 14.493C68.7383 15.339 68.8193 16.113 68.9813 16.815C69.1433 17.517 69.3863 18.075 69.7103 18.489C70.0523 18.903 70.4933 19.11 71.0333 19.11ZM80.3306 21V8.958L83.5436 7.554L85.0016 10.2V21H80.3306ZM82.2476 14.358L83.1656 12.63L87.1346 7.716C87.7106 7.536 88.3046 7.509 88.9166 7.635C89.5286 7.743 90.0686 7.995 90.5366 8.391C91.0226 8.769 91.3466 9.264 91.5086 9.876L88.7276 13.359C88.2956 12.963 87.8186 12.567 87.2966 12.171C86.7746 11.775 86.2256 11.532 85.6496 11.442L82.2476 14.358ZM78.3056 9.849L78.1706 8.553C78.9626 8.247 79.8176 8.013 80.7356 7.851C81.6536 7.671 82.5896 7.572 83.5436 7.554L83.5166 9.444L81.4646 10.443L78.3056 9.849ZM78.3596 21L78.3056 20.055C78.8276 19.749 79.3856 19.488 79.9796 19.272C80.5916 19.056 81.1496 18.885 81.6536 18.759L81.3836 21H78.3596ZM83.7326 21L84.4076 18.381C84.7856 18.453 85.1816 18.561 85.5956 18.705C86.0096 18.831 86.4146 18.975 86.8106 19.137C87.2246 19.281 87.6026 19.461 87.9446 19.677L87.8906 21H83.7326ZM93.7258 21V2.532L96.9118 1.101L98.3968 2.451V21H93.7258ZM96.8038 16.194L96.5608 15.519L98.2078 14.574L102.474 8.985L105.498 7.554L106.74 9.363L102.015 15.222L96.8038 16.194ZM102.582 21.162C102.33 20.982 102.105 20.775 101.907 20.541C101.727 20.307 101.52 20.019 101.286 19.677L98.4778 15.249L102.501 13.791L106.173 18.948C106.317 19.128 106.506 19.263 106.74 19.353C106.992 19.443 107.262 19.524 107.55 19.596L107.577 20.865L102.582 21.162ZM91.6738 3.45L91.5388 2.1C92.3308 1.812 93.1858 1.587 94.1038 1.425C95.0218 1.263 95.9578 1.155 96.9118 1.101L96.8848 3.018L94.8328 4.017L91.6738 3.45ZM99.9898 9.849L99.8818 8.553C100.422 8.337 101.007 8.166 101.637 8.04C102.267 7.896 102.906 7.779 103.554 7.689C104.22 7.599 104.868 7.554 105.498 7.554L105.39 9.498L103.419 10.362L99.9898 9.849ZM91.7278 21L91.6738 20.055C92.1958 19.749 92.7538 19.488 93.3478 19.272C93.9598 19.056 94.5178 18.885 95.0218 18.759L94.7518 21H91.7278Z" fill="black"/>
</svg>
