<?xml version="1.0" encoding="UTF-8"?>
<svg version="1.1" xmlns="http://www.w3.org/2000/svg" width="1563" height="1563">
<path d="M0 0 C6.26714265 4.7592587 8.68095989 11.44532595 10.12109375 18.93359375 C10.33570971 21.52213172 10.47233384 24.11818394 10.53515625 26.71484375 C10.56420547 27.76327454 10.56420547 27.76327454 10.59384155 28.83288574 C10.65291525 31.03300339 10.69972848 33.23317547 10.74609375 35.43359375 C10.78434032 36.93882304 10.82339576 38.444032 10.86328125 39.94921875 C10.958555 43.61048945 11.04284731 47.27191497 11.12109375 50.93359375 C12.79171875 50.42699219 12.79171875 50.42699219 14.49609375 49.91015625 C24.69676096 46.89778051 34.50525793 44.79143907 45.12109375 43.93359375 C46.39533203 43.8253125 46.39533203 43.8253125 47.6953125 43.71484375 C55.46975288 43.37985889 64.10331542 44.79348288 70.18359375 49.87109375 C71.18624139 50.86887417 72.16958434 51.8869334 73.12109375 52.93359375 C73.71921875 53.53171875 74.31734375 54.12984375 74.93359375 54.74609375 C78.56177536 61.42958619 78.57348288 68.62282828 77.12109375 75.93359375 C74.12438056 85.4231855 66.17460783 94.07465937 59.12109375 100.93359375 C58.46109375 100.93359375 57.80109375 100.93359375 57.12109375 100.93359375 C56.85554688 101.5059375 56.59 102.07828125 56.31640625 102.66796875 C55.06432484 105.04119495 53.62745855 107.05572661 51.99609375 109.18359375 C51.18785156 110.24320313 51.18785156 110.24320313 50.36328125 111.32421875 C49.74839844 112.12085938 49.74839844 112.12085938 49.12109375 112.93359375 C49.99507812 114.0628125 49.99507812 114.0628125 50.88671875 115.21484375 C57.71727388 124.05671206 64.48958286 132.94120484 71.12109375 141.93359375 C71.78882813 142.8359375 72.4565625 143.73828125 73.14453125 144.66796875 C78.49946504 152.24324094 79.51007573 158.12790919 78.60546875 167.3203125 C77.41421654 173.74731032 74.23080411 178.18611339 69.34375 182.50390625 C58.60250647 189.41303654 42.91462516 187.43031217 31.05078125 184.91796875 C6.7305566 179.32429417 6.7305566 179.32429417 -1.87890625 171.93359375 C-5.89141315 173.35620983 -9.00936468 175.33495227 -12.50390625 177.74609375 C-21.97234655 183.86616068 -35.46601164 188.62705849 -46.8125 186.515625 C-53.99136449 184.49360079 -60.32484248 182.21739003 -65.06640625 176.12109375 C-68.11426698 170.33143363 -68.79251029 163.32851542 -69.87890625 156.93359375 C-70.32621094 157.58585938 -70.77351563 158.238125 -71.234375 158.91015625 C-71.83894531 159.78414062 -72.44351563 160.658125 -73.06640625 161.55859375 C-73.95392578 162.84636719 -73.95392578 162.84636719 -74.859375 164.16015625 C-78.8026952 169.57554763 -82.63781277 173.95273092 -88.31640625 177.55859375 C-88.92331299 177.94466797 -89.53021973 178.33074219 -90.15551758 178.72851562 C-100.74312319 185.15499993 -114.32646871 188.69569472 -126.56640625 185.87109375 C-134.21111133 183.47939316 -139.05172434 179.19301645 -143.87890625 172.93359375 C-144.77351562 173.536875 -145.668125 174.14015625 -146.58984375 174.76171875 C-165.79382243 187.53415112 -186.80124452 192.91749354 -209.78588867 188.34155273 C-228.89258721 184.22453864 -245.12579195 175.59230209 -256.8828125 159.59765625 C-257.87890625 157.93359375 -257.87890625 157.93359375 -257.87890625 155.93359375 C-260.69866296 157.3434721 -260.85059257 159.03014673 -262.00390625 161.93359375 C-266.36108736 171.72772389 -273.10771929 178.49602413 -282.87890625 182.93359375 C-297.38616101 188.32025375 -311.87523796 186.77486044 -325.87890625 180.93359375 C-329.77870973 178.52230028 -333.34111271 175.84707078 -336.87890625 172.93359375 C-340.03182006 174.37451816 -342.52891445 176.178822 -345.25390625 178.30859375 C-355.56379028 185.53909807 -367.53569074 187.18599114 -379.87890625 185.93359375 C-392.23856865 183.71148423 -402.08554829 178.79684535 -409.87890625 168.93359375 C-410.02400635 169.4661377 -410.16910645 169.99868164 -410.31860352 170.54736328 C-416.74809049 193.82576296 -424.93052595 210.73386381 -446.15234375 223.27734375 C-473.2038246 236.53577705 -502.01251531 234.12217484 -530.00390625 225.68359375 C-539.48813193 222.26022966 -553.18186979 216.41764821 -557.87890625 206.93359375 C-560.79811748 199.32315887 -561.56569157 192.63169591 -559.16015625 184.79296875 C-555.86063362 177.42939994 -550.26805523 171.72545548 -543.87890625 166.93359375 C-544.53890625 166.27359375 -545.19890625 165.61359375 -545.87890625 164.93359375 C-546.60078125 165.90296875 -547.32265625 166.87234375 -548.06640625 167.87109375 C-554.65994188 175.54271932 -564.00985257 181.66736661 -573.87890625 183.93359375 C-574.61625 184.1346875 -575.35359375 184.33578125 -576.11328125 184.54296875 C-584.91558354 186.78907347 -593.50298315 186.83525586 -601.87890625 182.93359375 C-602.81476563 182.02222656 -603.750625 181.11085938 -604.71484375 180.171875 C-605.75898437 179.43324219 -606.803125 178.69460938 -607.87890625 177.93359375 C-610.80146501 178.47565493 -612.67912127 179.09754388 -615.31640625 180.30859375 C-630.42388948 186.41454892 -646.59062199 189.64682818 -662.87890625 189.93359375 C-663.9359375 189.98386719 -664.99296875 190.03414062 -666.08203125 190.0859375 C-692.28534132 190.89268966 -716.97777965 181.52239096 -736.87890625 164.93359375 C-737.54535156 164.38316406 -738.21179688 163.83273437 -738.8984375 163.265625 C-753.63400455 149.84141989 -762.8510718 127.27926762 -764.69140625 107.68359375 C-764.78002075 105.76795682 -764.8424846 103.85093327 -764.87890625 101.93359375 C-764.91757812 100.91136719 -764.95625 99.88914062 -764.99609375 98.8359375 C-765.59156614 71.60961645 -757.37425795 48.4637635 -738.87353516 28.49462891 C-728.53468232 17.69642161 -714.07005453 8.25456317 -698.87890625 6.93359375 C-698.87890625 6.27359375 -698.87890625 5.61359375 -698.87890625 4.93359375 C-696.88017886 4.44914611 -694.87984688 3.97131715 -692.87890625 3.49609375 C-691.76515625 3.22925781 -690.65140625 2.96242188 -689.50390625 2.6875 C-669.60927142 -1.45006953 -648.72720073 0.40396529 -629.87890625 7.93359375 C-628.91726563 8.28679688 -627.955625 8.64 -626.96484375 9.00390625 C-615.22823109 13.57002357 -601.1292394 20.46431411 -595.73046875 32.4921875 C-593.48087281 39.26981629 -593.51787173 45.19063923 -595.87890625 51.93359375 C-599.07556393 58.26621308 -603.72836963 63.14147076 -608.87890625 67.93359375 C-609.53890625 68.59359375 -610.19890625 69.25359375 -610.87890625 69.93359375 C-609.55890625 71.25359375 -608.23890625 72.57359375 -606.87890625 73.93359375 C-606.43160156 73.26972656 -605.98429688 72.60585938 -605.5234375 71.921875 C-595.01967666 56.58056119 -583.30759236 49.00347964 -565.14453125 45.40625 C-558.34353786 44.42189569 -551.97791083 45.76002177 -545.87890625 48.93359375 C-542.62345278 51.69365212 -540.67806199 54.11646602 -538.87890625 57.93359375 C-538.28464844 57.48628906 -537.69039062 57.03898438 -537.078125 56.578125 C-520.03110489 44.14413988 -502.58659366 41.3651869 -481.87890625 42.93359375 C-478.5910959 43.55259508 -475.52406893 44.35336061 -472.3359375 45.34765625 C-469.66859053 45.98374853 -467.93895573 45.83138795 -465.25390625 45.37109375 C-460.07628795 44.57583865 -455.54549964 45.60374027 -450.50390625 46.74609375 C-449.71806152 46.92390381 -448.9322168 47.10171387 -448.12255859 47.28491211 C-444.43507973 48.16846159 -441.24550275 49.1565525 -437.87890625 50.93359375 C-434.89553147 50.70410338 -433.11180577 50.07836913 -430.56640625 48.49609375 C-421.11751986 43.00255515 -410.1239861 44.4108581 -400.00390625 47.05859375 C-399.13693115 47.28087646 -398.26995605 47.50315918 -397.37670898 47.73217773 C-389.36135446 49.89087627 -381.64899966 52.63404472 -375.3125 58.1796875 C-373.09771534 60.1464794 -373.09771534 60.1464794 -370.80078125 59.890625 C-368.51227034 58.75102099 -366.96872865 57.39629429 -365.12890625 55.62109375 C-355.84622684 47.24780807 -345.70059297 45.44469639 -333.43359375 45.6953125 C-322.39639344 46.43516878 -315.38742144 49.99243663 -306.87890625 56.93359375 C-305.54989561 57.93933153 -304.21816824 58.94154783 -302.87890625 59.93359375 C-302.00492188 59.26263672 -302.00492188 59.26263672 -301.11328125 58.578125 C-287.00359184 48.17333831 -270.42268046 43.38253127 -252.87890625 44.93359375 C-247.87626089 45.85530945 -244.05079337 46.94814322 -240.12890625 50.24609375 C-239.38640625 50.80296875 -238.64390625 51.35984375 -237.87890625 51.93359375 C-234.98641786 51.40768677 -232.70769814 50.35071002 -230.09375 49.03515625 C-208.56052552 38.66269744 -184.17780558 39.40085595 -161.87890625 46.93359375 C-152.41403829 50.94669776 -143.15768115 57.65481885 -135.87890625 64.93359375 C-135.52441406 64.44890625 -135.16992188 63.96421875 -134.8046875 63.46484375 C-126.4223484 52.91080905 -114.21912156 46.59909155 -100.87890625 44.93359375 C-97.30921125 44.75315494 -93.75383111 44.82503826 -90.18286133 44.93945312 C-83.10736004 45.11574892 -76.72390288 43.75603342 -69.87890625 41.93359375 C-69.67587891 40.51820313 -69.67587891 40.51820313 -69.46875 39.07421875 C-67.3188333 26.25196108 -62.93707293 16.84859893 -52.796875 8.26171875 C-50.87890625 6.93359375 -50.87890625 6.93359375 -48.87890625 6.93359375 C-48.50185547 6.00740234 -48.50185547 6.00740234 -48.1171875 5.0625 C-45.4706553 0.5124683 -39.60691026 -0.54844586 -34.81640625 -1.984375 C-23.37488605 -4.91351419 -10.69684385 -6.07118165 0 0 Z " fill="#FCFCFC" transform="translate(1124.87890625,667.06640625)"/>
<path d="M0 0 C8.25921788 5.51843575 8.25921788 5.51843575 10 9 C10.33 5.7 10.66 2.4 11 -1 C21.05276196 -0.71682361 26.86484377 2.50332781 33.8125 9.6875 C41.0709997 18.79176406 41.59718155 28.76870173 41.49609375 40.01953125 C41.49624926 41.45000787 41.49774674 42.88048489 41.50050354 44.31095886 C41.50187899 47.29384231 41.48947955 50.27623998 41.46655273 53.2590332 C41.4382483 57.04097245 41.44089565 60.8221018 41.45364285 64.60410023 C41.46067411 67.55481106 41.45272579 70.50534207 41.44038582 73.45602989 C41.43593763 74.84836825 41.43547489 76.24072639 41.43945122 77.63306618 C41.46421833 93.9373059 38.84988223 111.06600327 28.07421875 123.96875 C16.34126287 135.4586503 0.76079607 139.16318252 -15.125 139.1875 C-18.08459266 139.15586433 -21.04159419 139.08782186 -24 139 C-24.84433594 138.98195313 -25.68867187 138.96390625 -26.55859375 138.9453125 C-37.88633979 138.19454571 -51.98820857 133.86863635 -61 127 C-62.28515625 124.81640625 -62.28515625 124.81640625 -63 123 C-53.89238398 114.30542779 -46.74212575 110.93903289 -34 111 C-31.46228604 111.37540147 -29.02520941 111.91656934 -26.53125 112.51171875 C-17.52859293 114.24834241 -8.01322551 113.41020457 0.25 109.4375 C8.7014723 101.94642228 9.50234997 91.60531038 11 81 C10.49210938 81.47050781 9.98421875 81.94101562 9.4609375 82.42578125 C-0.01863354 91 -0.01863354 91 -6 91 C-6 91.66 -6 92.32 -6 93 C-9.0682638 93.89749822 -11.79269976 94.11711768 -14.984375 94.09765625 C-15.91894531 94.09443359 -16.85351562 94.09121094 -17.81640625 94.08789062 C-18.78449219 94.07951172 -19.75257813 94.07113281 -20.75 94.0625 C-21.73355469 94.05798828 -22.71710937 94.05347656 -23.73046875 94.04882812 C-26.15370791 94.03706483 -28.57682273 94.02062684 -31 94 C-31 93.34 -31 92.68 -31 92 C-32.03125 91.896875 -33.0625 91.79375 -34.125 91.6875 C-43.03045206 90.10750044 -49.55993869 84.45858927 -54.9921875 77.41796875 C-61.83098969 67.15976546 -64.7489463 57.56442943 -64.625 45.25 C-64.61662109 44.10982422 -64.60824219 42.96964844 -64.59960938 41.79492188 C-64.22774691 27.87777119 -59.94574773 17.05919732 -50 7 C-37.11097127 -5.18795185 -15.79402244 -8.96206866 0 0 Z " fill="#030303" transform="translate(651,737)"/>
<path d="M0 0 C11.24338215 -0.24295424 21.87947323 1.25268302 32.62890625 4.4921875 C33.29575439 4.68901123 33.96260254 4.88583496 34.6496582 5.08862305 C38.87191896 6.43951034 41.74680259 8.21947327 45.06640625 11.1171875 C46.65729184 12.21993173 48.26090866 13.30462192 49.87890625 14.3671875 C51.06419922 15.14835938 51.06419922 15.14835938 52.2734375 15.9453125 C52.86511719 16.33203125 53.45679688 16.71875 54.06640625 17.1171875 C53.53894597 21.09548963 51.71768841 22.71926051 48.75390625 25.3046875 C47.97402344 25.99949219 47.19414062 26.69429687 46.390625 27.41015625 C44.17354984 29.03849548 42.75027294 29.70570222 40.06640625 30.1171875 C40.06640625 30.7771875 40.06640625 31.4371875 40.06640625 32.1171875 C34.72975324 34.40432451 29.94844391 36.15583727 24.06640625 35.1171875 C22.55135923 34.48546212 21.05203859 33.81528564 19.56640625 33.1171875 C10.3706513 29.12149737 -3.5836111 29.76306674 -12.93359375 33.1171875 C-23.18000401 39.13492051 -30.6241807 48.64986099 -33.74609375 60.0546875 C-36.60592223 73.70958285 -34.41531266 86.94116032 -27.24609375 98.9296875 C-22.61525146 105.48320862 -14.5775309 110.60654261 -6.83203125 112.6796875 C-2.81482946 113.28605758 1.13414652 113.30147764 5.19140625 113.3046875 C5.98289062 113.31693359 6.774375 113.32917969 7.58984375 113.34179688 C14.1593371 113.35769081 19.36260773 112.33605996 26.06640625 111.1171875 C26.06640625 103.1971875 26.06640625 95.2771875 26.06640625 87.1171875 C23.09640625 86.1271875 20.12640625 85.1371875 17.06640625 84.1171875 C12.28739532 80.59168764 8.99226451 77.26669804 6.06640625 72.1171875 C6.06640625 71.4571875 6.06640625 70.7971875 6.06640625 70.1171875 C5.40640625 70.1171875 4.74640625 70.1171875 4.06640625 70.1171875 C3.40640625 66.8171875 2.74640625 63.5171875 2.06640625 60.1171875 C7.43722667 59.89298813 12.80526845 59.73061695 18.1796875 59.62280273 C20.0034128 59.57782224 21.82681867 59.51661125 23.64941406 59.43823242 C40.73039119 58.72262741 40.73039119 58.72262741 47.1640625 64.3984375 C55.88183101 73.92262655 56.2303797 83.56292138 56.1640625 95.9609375 C56.16264755 96.97063599 56.1612326 97.98033447 56.15977478 99.02062988 C56.15421406 102.21951361 56.14166895 105.41832522 56.12890625 108.6171875 C56.12388617 110.79687398 56.11932415 112.97656157 56.11523438 115.15625 C56.10425753 120.47658676 56.08755893 125.79688198 56.06640625 131.1171875 C54.48749195 131.92744932 52.90611565 132.73291462 51.32373047 133.53637695 C50.44337128 133.985439 49.56301208 134.43450104 48.65597534 134.89717102 C45.19597959 136.52726919 41.91400193 137.41853946 38.19140625 138.3046875 C33.4632313 139.37575138 33.4632313 139.37575138 28.99609375 141.16796875 C22.65223087 144.28853288 14.57968957 143.4089107 7.65600586 143.46728516 C6.23363772 143.48374364 4.81134877 143.51089879 3.3894043 143.54931641 C-6.69224582 143.81909878 -14.6534689 142.36744546 -23.93359375 138.1171875 C-25.65840683 137.45981554 -27.38687544 136.8118306 -29.12109375 136.1796875 C-44.37132769 129.91751414 -55.88497145 119.06581064 -62.93359375 104.1171875 C-64.42733627 100.49437691 -65.69503986 96.83284917 -66.93359375 93.1171875 C-67.454375 91.95703125 -67.97515625 90.796875 -68.51171875 89.6015625 C-70.64487478 83.91759605 -70.46369346 78.11915422 -70.43359375 72.1171875 C-70.43294922 70.92633545 -70.43230469 69.7354834 -70.43164062 68.50854492 C-70.27137824 58.98391894 -68.67625357 50.84560487 -64.93359375 42.1171875 C-64.27359375 42.1171875 -63.61359375 42.1171875 -62.93359375 42.1171875 C-62.78921875 41.5396875 -62.64484375 40.9621875 -62.49609375 40.3671875 C-61.71484375 37.2421875 -61.71484375 37.2421875 -60.93359375 34.1171875 C-60.27359375 34.1171875 -59.61359375 34.1171875 -58.93359375 34.1171875 C-58.83175781 33.53453125 -58.72992188 32.951875 -58.625 32.3515625 C-57.32191596 28.14046605 -53.8904497 25.28194738 -50.93359375 22.1171875 C-50.35609375 21.45203125 -49.77859375 20.786875 -49.18359375 20.1015625 C-38.37962232 8.27307654 -21.0669217 1.21070122 -5.1484375 0.171875 C-3.43185881 0.12949034 -1.71573349 0.06853796 0 0 Z " fill="#040404" transform="translate(452.93359375,690.8828125)"/>
<path d="M0 0 C11.59765236 -1.18612354 23.59375927 1.94409568 32.75 9.375 C40.26486506 16.22265741 41.85519607 27.25479578 44.1875 36.6875 C44.54540601 38.10242069 44.9041241 39.51713623 45.26367188 40.93164062 C48.00187715 51.76403713 48.00187715 51.76403713 49 57 C49.66 57 50.32 57 51 57 C51.0928125 55.2675 51.0928125 55.2675 51.1875 53.5 C52.01349115 46.07771335 54.64646996 39.05077694 57 32 C57.22800293 31.31437988 57.45600586 30.62875977 57.69091797 29.92236328 C58.74812769 26.74618044 59.81133661 23.5724442 60.88671875 20.40234375 C62.0561289 16.98332332 62.0561289 16.98332332 62.87890625 13.3359375 C64.68609221 7.95845732 68.51110167 5.25426076 73 2 C78.0807251 -0.48851842 83.61998898 -1.07927694 89.04296875 0.65234375 C94.98631761 3.33087428 100.33766882 7.31328335 103.06713867 13.36669922 C105.44734127 20.20890684 107.57887457 27.09529428 109.5625 34.0625 C110.14677515 36.09515567 110.73140691 38.12770888 111.31640625 40.16015625 C111.59500488 41.13098145 111.87360352 42.10180664 112.16064453 43.10205078 C113.40870226 47.41108083 114.70260666 51.70558861 116 56 C116.99 52.7 117.98 49.4 119 46 C119.66 46 120.32 46 121 46 C121.33 42.37 121.66 38.74 122 35 C122.66 35 123.32 35 124 35 C124.10957031 34.01 124.21914063 33.02 124.33203125 32 C126.43009032 14.04943391 126.43009032 14.04943391 132.1875 8.75 C142.33961738 0.88478064 152.40545912 -0.31442682 165 0 C163.74755965 6.2212855 162.07192674 12.15387334 159.98828125 18.14453125 C159.55131172 19.41933601 159.55131172 19.41933601 159.10551453 20.71989441 C158.17903876 23.41901221 157.24584961 26.11575254 156.3125 28.8125 C155.70594773 30.57732538 155.09982503 32.34229846 154.49414062 34.10742188 C152.03774329 41.25511616 149.5681821 48.3978795 147.05444336 55.52563477 C146.73867844 56.42219284 146.42291351 57.31875092 146.09757996 58.24247742 C145.49994006 59.93700379 144.90032018 61.63083375 144.29829407 63.32380676 C142.66592021 67.95074815 141.22538767 72.57801321 139.9375 77.3125 C138.01150626 83.62458034 135.56123507 87.71698174 129.96484375 91.3046875 C123.10998793 94.81069841 116.82287426 94.59320463 109.375 93.4375 C103.51822399 90.94294726 99.31439087 87.71861267 96.49609375 81.8894043 C95.1401686 78.16805744 93.94503614 74.41826413 92.8125 70.625 C92.38833308 69.27638501 91.96188731 67.92848472 91.53320312 66.58129883 C89.02524642 58.63943594 86.59564487 50.65626389 84.44458008 42.60986328 C84.01850406 41.05695261 83.51762589 39.52483959 83 38 C82.34 37.67 81.68 37.34 81 37 C80.83564453 38.17755859 80.83564453 38.17755859 80.66796875 39.37890625 C80.50941406 40.42949219 80.35085938 41.48007812 80.1875 42.5625 C79.96126953 44.11130859 79.96126953 44.11130859 79.73046875 45.69140625 C79.06129421 48.72237331 78.05378697 51.26623403 76.77807617 54.08276367 C75.29982957 57.72527091 74.49140563 61.56327073 73.5625 65.375 C68.5185755 85.21253659 68.5185755 85.21253659 60.9453125 90.41015625 C53.78704305 94.51529799 46.95673053 95.24881364 38.89453125 93.55859375 C33.92628086 91.81477077 30.82561954 88.26473524 28 84 C26.0917116 79.74871229 24.67316783 75.37131764 23.25 70.9375 C22.82969285 69.66747584 22.40786961 68.39795254 21.98461914 67.12890625 C21.09919849 64.46610591 20.22321839 61.80045719 19.35400391 59.13232422 C17.98688517 54.94445882 16.58044601 50.77040301 15.16796875 46.59765625 C14.25692284 43.89873705 13.34700692 41.19943817 12.4375 38.5 C12.21976929 37.85457245 12.00203857 37.2091449 11.77770996 36.54415894 C11.15968888 34.70763508 10.54654225 32.86947308 9.93359375 31.03125 C9.4085022 29.46213867 9.4085022 29.46213867 8.87280273 27.86132812 C8.07592563 25.24890863 7.4797961 22.68661098 7 20 C6.34 20 5.68 20 5 20 C4.80664062 19.25234375 4.61328125 18.5046875 4.4140625 17.734375 C4.15367187 16.74953125 3.89328125 15.7646875 3.625 14.75 C3.36976563 13.77546875 3.11453125 12.8009375 2.8515625 11.796875 C2.11807815 9.05846933 2.11807815 9.05846933 0.8984375 6.953125 C-0.21551219 4.53149525 -0.14635648 2.63441664 0 0 Z " fill="#030303" transform="translate(705,736)"/>
<path d="M0 0 C9.07247273 7.47821575 14.67685457 18.14938321 16.1875 29.75 C17.05035309 45.31454225 15.05713347 58.86585631 5.06640625 71.4140625 C-1.31528337 78.35113726 -8.22789065 82.12986832 -16.8125 85.75 C-18.00875 86.29914063 -19.205 86.84828125 -20.4375 87.4140625 C-26.03871367 89.46757162 -31.79278285 89.22455251 -37.6875 89.1875 C-38.80769531 89.20748047 -39.92789063 89.22746094 -41.08203125 89.24804688 C-48.52906856 89.24370205 -54.13690543 88.00957976 -60.8125 84.75 C-61.80121094 84.3271875 -62.78992188 83.904375 -63.80859375 83.46875 C-74.74237678 78.01060551 -83.70033283 68.35663634 -87.8125 56.75 C-89.6482406 50.64600035 -90.12058391 45.16784801 -90.0625 38.8125 C-90.07023438 37.97009766 -90.07796875 37.12769531 -90.0859375 36.25976562 C-90.04562326 23.16771585 -85.80088423 12.24634101 -76.78125 2.59375 C-55.48450903 -17.35081694 -23.01303318 -16.45451276 0 0 Z " fill="#030303" transform="translate(967.8125,744.25)"/>
<path d="M0 0 C0 28.05 0 56.1 0 85 C4.07244853 80.97411016 4.07244853 80.97411016 7.68359375 76.6953125 C8.1324292 76.11539551 8.58126465 75.53547852 9.04370117 74.93798828 C9.50365479 74.33970215 9.9636084 73.74141602 10.4375 73.125 C11.4216379 71.87481332 12.4060099 70.62481088 13.390625 69.375 C14.82003808 67.54775028 16.18097275 65.73330332 17.484375 63.8125 C23.74223084 55.03524765 36.46589911 50.80142376 46.6875 49 C53.77945336 47.88608488 60.82743651 47.66320137 68 48 C67.51731435 52.25366729 64.84485218 54.63004066 62 57.5625 C57.5240402 62.30008434 53.34635999 67.18329142 49.265625 72.26953125 C46.83673582 75.19676148 44.28232347 77.96929005 41.6875 80.75 C38.09870243 84.64018959 35.32136344 88.25175659 33 93 C33.66 93 34.32 93 35 93 C36.50391367 94.90475016 37.88292888 96.81180227 39.25 98.8125 C40.1495009 100.10133711 41.05063389 101.38903622 41.953125 102.67578125 C42.44103516 103.37268066 42.92894531 104.06958008 43.43164062 104.78759766 C46.22955546 108.73446942 49.11983131 112.6129844 52 116.5 C53.7722781 118.9028233 55.5430604 121.3067421 57.31347656 123.7109375 C58.40784939 125.19629355 59.50347854 126.6807251 60.60058594 128.1640625 C62.03263395 130.10419709 63.45520204 132.05089139 64.875 134 C65.2978125 134.56912109 65.720625 135.13824219 66.15625 135.72460938 C69 139.65652902 69 139.65652902 69 143 C46.68241837 143.54879299 46.68241837 143.54879299 38 139 C36.329375 138.566875 36.329375 138.566875 34.625 138.125 C22.5294064 134.37119509 16.17233731 122.60054476 9.625 112.5625 C8.20135807 110.39658487 6.77692372 108.23119032 5.3515625 106.06640625 C4.42077881 104.6424353 4.42077881 104.6424353 3.47119141 103.18969727 C2.17944629 101.11524924 2.17944629 101.11524924 1 100 C1.01683838 100.76554199 1.03367676 101.53108398 1.05102539 102.31982422 C1.10175915 105.8393129 1.08258167 109.35523092 1.0625 112.875 C1.09021484 114.07898438 1.11792969 115.28296875 1.14648438 116.5234375 C1.05444572 123.2974825 0.35177492 127.45053926 -4.1640625 132.65625 C-7.70288269 136.07287288 -10.93601013 138.66384136 -15.4375 140.625 C-16.95150391 141.32496094 -16.95150391 141.32496094 -18.49609375 142.0390625 C-21.69737984 142.91700718 -23.94641871 143.10116841 -27.21899414 143.06005859 C-28.11550186 143.05138763 -29.01200958 143.04271667 -29.9356842 143.03378296 C-30.61690842 143.02263458 -31.29813263 143.01148621 -32 143 C-32.14033177 126.44912414 -32.24604964 109.89844207 -32.31087303 93.34711456 C-32.34177544 85.66154561 -32.38388583 77.97634689 -32.45263672 70.29101562 C-32.51255064 63.59031657 -32.55117545 56.88988571 -32.56453097 50.18892622 C-32.5723348 46.6425858 -32.59059731 43.09701246 -32.63438034 39.55091858 C-32.6829282 35.58653687 -32.68393214 31.6228969 -32.68115234 27.65820312 C-32.702724 26.4900708 -32.72429565 25.32193848 -32.746521 24.1184082 C-32.69703772 17.59096537 -31.93347126 13.60422493 -27.63645363 8.58574677 C-19.00577787 0.2224996 -12.83332074 0 0 0 Z " fill="#040404" transform="translate(1111,687)"/>
<path d="M0 0 C0.74958984 0.00451172 1.49917969 0.00902344 2.27148438 0.01367188 C4.11852383 0.02543646 5.96552213 0.04337135 7.8125 0.0625 C7.91030397 9.5299244 6.32604886 15.92264836 -0.1875 23.0625 C-3.6598825 25.82462245 -7.32943772 27.6077534 -11.3125 29.5 C-16.95342257 32.2993184 -19.22339634 34.86291535 -21.76953125 40.671875 C-23.22625714 45.12880001 -23.43490778 49.41167301 -23.453125 54.0625 C-23.45651382 54.78773865 -23.45990265 55.51297729 -23.46339417 56.26019287 C-23.46535585 59.29126097 -23.45062922 62.32093613 -23.39697266 65.3515625 C-23.16870664 80.75455631 -23.16870664 80.75455631 -29.2980957 87.41064453 C-35.70546559 93.01243606 -43.27453922 97.28820953 -51.94140625 97.13671875 C-53.13938843 97.12064575 -53.13938843 97.12064575 -54.36157227 97.10424805 C-54.96412842 97.09047119 -55.56668457 97.07669434 -56.1875 97.0625 C-56.23392036 87.53500964 -56.26941842 78.00755845 -56.29112434 68.47997952 C-56.30154414 64.05554129 -56.3156703 59.63118068 -56.33837891 55.20678711 C-56.36017174 50.93388676 -56.37208219 46.66106087 -56.37725449 42.38810921 C-56.3809387 40.76109712 -56.38813299 39.13408892 -56.39896011 37.50710869 C-56.41356079 35.22136628 -56.41547439 32.93592831 -56.41455078 30.65014648 C-56.418992 29.35108871 -56.42343323 28.05203094 -56.42800903 26.71360779 C-55.8874871 18.50807885 -53.23077328 13.42184068 -47.1875 8.0625 C-40.11922115 3.00849751 -33.70390539 2.40401505 -25.1875 3.0625 C-25.1875 6.3625 -25.1875 9.6625 -25.1875 13.0625 C-24.548125 12.381875 -23.90875 11.70125 -23.25 11 C-15.96516383 3.71516383 -10.4290207 -0.1184081 0 0 Z " fill="#050505" transform="translate(1059.1875,732.9375)"/>
<path d="M0 0 C0.11629942 9.08443499 0.20491922 18.16861028 0.25906086 27.25362968 C0.28505782 31.47306657 0.32027193 35.69199086 0.37719727 39.91113281 C0.43187439 43.98957417 0.46149484 48.06752524 0.47438622 52.14630508 C0.48356261 53.69554478 0.50148103 55.24476029 0.52865028 56.79378891 C0.71591782 67.92211645 -0.58615585 76.18855721 -8.1875 84.8125 C-13.53782518 89.72180055 -19.44442497 92.82160539 -26.67626953 93.55908203 C-27.89106491 93.68550583 -27.89106491 93.68550583 -29.13040161 93.81448364 C-29.74736908 93.87570404 -30.36433655 93.93692444 -31 94 C-31.11649449 85.34126343 -31.20501633 76.68280178 -31.25906086 68.02344894 C-31.28501615 64.00135112 -31.32015138 59.97979435 -31.37719727 55.95800781 C-31.4320266 52.06758657 -31.46152595 48.17768155 -31.47438622 44.28690338 C-31.48353587 42.81188087 -31.50139999 41.33688259 -31.52865028 39.86208344 C-31.73746377 28.07887588 -30.03914017 17.31262141 -21.59765625 8.4609375 C-15.00062508 2.42844445 -9.11783387 -0.14066784 0 0 Z " fill="#030303" transform="translate(566,736)"/>
<path d="M0 0 C0.86625 0.61875 1.7325 1.2375 2.625 1.875 C3.49898437 2.47828125 3.49898437 2.47828125 4.390625 3.09375 C9.31551491 6.81845665 12.10260906 10.87498866 13.625 16.875 C14.63107394 24.44902833 14.13748746 31.00220688 10.32421875 37.7109375 C6.76747353 42.24067739 2.03912945 45.07029018 -3.375 46.875 C-17.68136033 48.1474844 -17.68136033 48.1474844 -23.69140625 43.63671875 C-30.3411818 36.67836892 -32.82807055 29.24720452 -32.71484375 19.82421875 C-31.84945718 12.31425487 -27.93919588 6.65348356 -22.12109375 2.03125 C-15.48713387 -2.36170777 -7.51409181 -2.50469727 0 0 Z " fill="#F9F9F9" transform="translate(648.375,759.125)"/>
<path d="M0 0 C6.42158353 4.37835241 11.43973447 8.25688305 13.29296875 16.203125 C14.76674471 24.81904597 14.47640524 31.39973421 9.46484375 38.74609375 C5.43868049 43.74440576 1.05035419 47.39055802 -5.50390625 48.12890625 C-11.63013064 48.41884969 -16.30280094 47.60761726 -21.25 43.875 C-27.66471229 37.67299195 -30.50035111 33.38742143 -30.6875 24.375 C-30.76699445 16.64918788 -29.03877727 11.10494958 -24.25 4.875 C-17.67116533 -1.70383467 -8.68928489 -3.00782939 0 0 Z " fill="#F8F8F8" transform="translate(939.25,759.125)"/>
<path d="M0 0 C0.66 0.33 1.32 0.66 2 1 C1.14535156 1.84304688 0.29070313 2.68609375 -0.58984375 3.5546875 C-1.70586047 4.66132593 -2.82173872 5.76810402 -3.9375 6.875 C-4.50146484 7.43058594 -5.06542969 7.98617187 -5.64648438 8.55859375 C-8.69860028 11.4921571 -8.69860028 11.4921571 -11 15 C-11.66 15 -12.32 15 -13 15 C-10.11618766 8.76768519 -5.50251479 4.04596676 0 0 Z " fill="#353535" transform="translate(898,741)"/>
<path d="M0 0 C0.66 0.33 1.32 0.66 2 1 C-2.29 5.29 -6.58 9.58 -11 14 C-11 9.40845608 -8.09282279 7.18698368 -5 4 C-3.3719908 2.61973133 -1.71956118 1.26438322 0 0 Z " fill="#222222" transform="translate(607,739)"/>
<path d="M0 0 C0.66 0.33 1.32 0.66 2 1 C-1.63 4.63 -5.26 8.26 -9 12 C-9.66 11.67 -10.32 11.34 -11 11 C-9.73347137 9.53792657 -8.46161082 8.08047074 -7.1875 6.625 C-6.47980469 5.81289063 -5.77210937 5.00078125 -5.04296875 4.1640625 C-3 2 -3 2 0 0 Z " fill="#2F2F2F" transform="translate(1136,744)"/>
<path d="M0 0 C0.66 0.33 1.32 0.66 2 1 C-1.33333333 4.33333333 -4.66666667 7.66666667 -8 11 C-7.91433603 8.087425 -7.42089045 6.43201976 -5.375 4.33203125 C-3.61608625 2.83908228 -1.83686981 1.39563738 0 0 Z " fill="#313131" transform="translate(841,742)"/>
<path d="M0 0 C0.66 0.33 1.32 0.66 2 1 C-0.97 3.97 -3.94 6.94 -7 10 C-7.33 9.34 -7.66 8.68 -8 8 C-3.375 2.25 -3.375 2.25 0 0 Z " fill="#C9C9C9" transform="translate(1046,762)"/>
<path d="M0 0 C-1.38188453 3.21043882 -2.92421903 5.04936365 -5.625 7.25 C-6.57246094 8.03117188 -6.57246094 8.03117188 -7.5390625 8.828125 C-8.02117188 9.21484375 -8.50328125 9.6015625 -9 10 C-7.6834994 5.81113445 -4.97532335 0 0 0 Z " fill="#CECECE" transform="translate(628,761)"/>
<path d="M0 0 C0.66 0.33 1.32 0.66 2 1 C0.71451591 2.33929505 -0.57858155 3.67128643 -1.875 5 C-2.59429688 5.7425 -3.31359375 6.485 -4.0546875 7.25 C-6 9 -6 9 -8 9 C-6.4169423 4.7257442 -3.49431596 2.73468206 0 0 Z " fill="#303030" transform="translate(1015,739)"/>
<path d="M0 0 C0.66 0.33 1.32 0.66 2 1 C1.0479279 2.00596297 0.08812654 3.00461563 -0.875 4 C-1.40867187 4.556875 -1.94234375 5.11375 -2.4921875 5.6875 C-4 7 -4 7 -6 7 C-4.60667426 3.63279613 -3.0210714 2.0140476 0 0 Z " fill="#404040" transform="translate(1089,691)"/>
</svg>
